<svg id="visual" viewBox="0 0 900 600" width="900" height="600" xmlns="http://www.w3.org/2000/svg" xmlns:xlink="http://www.w3.org/1999/xlink" version="1.1"><path d="M0 405L21.5 411.5C43 418 86 431 128.8 435C171.7 439 214.3 434 257.2 420.3C300 406.7 343 384.3 385.8 385.7C428.7 387 471.3 412 514.2 412.3C557 412.7 600 388.3 642.8 384.7C685.7 381 728.3 398 771.2 396.5C814 395 857 375 878.5 365L900 355L900 601L878.5 601C857 601 814 601 771.2 601C728.3 601 685.7 601 642.8 601C600 601 557 601 514.2 601C471.3 601 428.7 601 385.8 601C343 601 300 601 257.2 601C214.3 601 171.7 601 128.8 601C86 601 43 601 21.5 601L0 601Z" fill="#0e1627"></path><path d="M0 469L21.5 460.8C43 452.7 86 436.3 128.8 426.2C171.7 416 214.3 412 257.2 413.3C300 414.7 343 421.3 385.8 421.8C428.7 422.3 471.3 416.7 514.2 416.5C557 416.3 600 421.7 642.8 425C685.7 428.3 728.3 429.7 771.2 426.2C814 422.7 857 414.3 878.5 410.2L900 406L900 601L878.5 601C857 601 814 601 771.2 601C728.3 601 685.7 601 642.8 601C600 601 557 601 514.2 601C471.3 601 428.7 601 385.8 601C343 601 300 601 257.2 601C214.3 601 171.7 601 128.8 601C86 601 43 601 21.5 601L0 601Z" fill="#0f1f40"></path><path d="M0 470L21.5 472.8C43 475.7 86 481.3 128.8 479.3C171.7 477.3 214.3 467.7 257.2 462.8C300 458 343 458 385.8 454.5C428.7 451 471.3 444 514.2 441C557 438 600 439 642.8 439C685.7 439 728.3 438 771.2 440C814 442 857 447 878.5 449.5L900 452L900 601L878.5 601C857 601 814 601 771.2 601C728.3 601 685.7 601 642.8 601C600 601 557 601 514.2 601C471.3 601 428.7 601 385.8 601C343 601 300 601 257.2 601C214.3 601 171.7 601 128.8 601C86 601 43 601 21.5 601L0 601Z" fill="#122859"></path><path d="M0 490L21.5 493.7C43 497.3 86 504.7 128.8 503.7C171.7 502.7 214.3 493.3 257.2 488.5C300 483.7 343 483.3 385.8 492.7C428.7 502 471.3 521 514.2 528C557 535 600 530 642.8 524.2C685.7 518.3 728.3 511.7 771.2 508.7C814 505.7 857 506.3 878.5 506.7L900 507L900 601L878.5 601C857 601 814 601 771.2 601C728.3 601 685.7 601 642.8 601C600 601 557 601 514.2 601C471.3 601 428.7 601 385.8 601C343 601 300 601 257.2 601C214.3 601 171.7 601 128.8 601C86 601 43 601 21.5 601L0 601Z" fill="#1b3073"></path><path d="M0 554L21.5 554C43 554 86 554 128.8 553C171.7 552 214.3 550 257.2 550.5C300 551 343 554 385.8 557.8C428.7 561.7 471.3 566.3 514.2 564C557 561.7 600 552.3 642.8 550.8C685.7 549.3 728.3 555.7 771.2 556.7C814 557.7 857 553.3 878.5 551.2L900 549L900 601L878.5 601C857 601 814 601 771.2 601C728.3 601 685.7 601 642.8 601C600 601 557 601 514.2 601C471.3 601 428.7 601 385.8 601C343 601 300 601 257.2 601C214.3 601 171.7 601 128.8 601C86 601 43 601 21.5 601L0 601Z" fill="#2c378d"></path></svg>